<svg xmlns="http://www.w3.org/2000/svg" viewBox="0 0 400 400">
  <rect width="400" height="400" fill="#000000"/>
  <g fill="none" stroke="#C9A961" stroke-linecap="round" stroke-linejoin="round">
    <circle cx="200" cy="200" r="132" stroke-width="4"/>
    <path d="M200.00,82.00 C259.00,82.00 175.45,157.36 211.48,172.28" stroke-width="4.6"/>
    <path d="M283.44,116.56 C325.16,158.28 212.79,152.49 227.72,188.52" stroke-width="4.6"/>
    <path d="M318.00,200.00 C318.00,259.00 242.64,175.45 227.72,211.48" stroke-width="4.6"/>
    <path d="M283.44,283.44 C241.72,325.16 247.51,212.79 211.48,227.72" stroke-width="4.6"/>
    <path d="M200.00,318.00 C141.00,318.00 224.55,242.64 188.52,227.72" stroke-width="4.6"/>
    <path d="M116.56,283.44 C74.84,241.72 187.21,247.51 172.28,211.48" stroke-width="4.6"/>
    <path d="M82.00,200.00 C82.00,141.00 157.36,224.55 172.28,188.52" stroke-width="4.6"/>
    <path d="M116.56,116.56 C158.28,74.84 152.49,187.21 188.52,172.28" stroke-width="4.6"/>
    <polygon points="211.48,172.28 227.72,188.52 227.72,211.48 211.48,227.72 188.52,227.72 172.28,211.48 172.28,188.52 188.52,172.28" stroke-width="3.8"/>
  </g>
  <circle cx="200" cy="200" r="8" fill="#C9A961"/>
</svg>
